#!OML:ASF E:\CV Data\Top Level 1\Subject 1\Session 1\player.ASF
:FULLY-SPECIFIED
:DEGREES
518
root -0.368271 17.8714 -4.93176 -23.0195 87.6862 -30.337
lowerback 6.1123 0.0680361 12.3262
upperback -2.63572 1.67516 5.11259
thorax -6.11002 0.538914 -1.67707
lowerneck 0.973315 -18.3562 -17.8638
upperneck -22.5357 -21.9418 26.0887
head -1.47711 -11.2075 10.3285
rclavicle -3.77691e-015 4.45278e-014
rhumerus 86.8793 -53.5301 -101.001
rradius 27.154
rwrist -42.5855
rhand -1.60061 -6.23821
rfingers 7.12502
rthumb 24.0564 -34.7504
lclavicle -3.77691e-015 4.45278e-014
lhumerus -40.4067 20.4137 56.8682
lradius 45.9653
lwrist 14.0631
lhand -26.4448 13.9099
lfingers 7.12502
lthumb 0.116116 43.8896
rfemur -13.1063 -4.27257 20.7864
rtibia 27.7974
rfoot -18.618 -11.7194
rtoes 6.54583
lfemur -11.3803 -1.45341 -6.20577
ltibia 26.0246
lfoot -3.94465 4.35531
ltoes -7.99367
519
root -0.367329 17.8802 -4.91502 -16.656 87.3985 -24.0363
lowerback 6.13125 0.0642973 12.2616
upperback -2.55095 1.67614 5.29817
thorax -6.0368 0.555329 -1.44681
lowerneck 0.670595 -18.3932 -18.2036
upperneck -21.9106 -22.0697 26.0847
head -1.18638 -11.2365 10.2651
rclavicle -1.33186e-014 5.725e-014
rhumerus 87.4669 -53.9238 -103.229
rradius 25.968
rwrist -38.874
rhand 0.986545 -5.49999
rfingers 7.12502
rthumb 26.535 -33.6615
lclavicle -1.33186e-014 5.725e-014
lhumerus -40.4904 20.1795 56.7931
lradius 46.5394
lwrist 14.5346
lhand -26.5598 13.9723
lfingers 7.12502
lthumb 0.00511164 43.952
rfemur -13.1684 -3.98582 20.7325
rtibia 27.6882
rfoot -18.5341 -11.7515
rtoes 6.78205
lfemur -11.3083 -1.41729 -6.25154
ltibia 25.9261
lfoot -3.62791 4.3625
ltoes -8.25225
520
root -0.367218 17.8875 -4.90002 -11.1006 87.0385 -18.5278
lowerback 6.1911 0.05948 12.2053
upperback -2.46186 1.68143 5.47136
thorax -5.98159 0.571991 -1.23516
lowerneck 0.408492 -18.4047 -18.5533
upperneck -21.3311 -22.1617 26.0664
head -0.924082 -11.2485 10.2146
rclavicle -1.39149e-015 1.27222e-014
rhumerus 85.8931 -54.474 -103.368
rradius 25.889
rwrist -38.3343
rhand 2.95076 -5.12759
rfingers 7.12502
rthumb 28.4135 -32.9907
lclavicle -1.39149e-015 1.27222e-014
lhumerus -40.619 19.8882 56.7687
lradius 47.1347
lwrist 15.1848
lhand -26.7009 14.1132
lfingers 7.12502
lthumb -0.131195 44.0929
rfemur -13.2452 -3.73775 20.6674
rtibia 27.6126
rfoot -18.4147 -11.767
rtoes 6.6841
lfemur -11.2129 -1.35462 -6.32518
ltibia 25.8457
lfoot -3.329 4.40365
ltoes -8.48992
521
root -0.367695 17.8937 -4.88533 -6.22957 86.5925 -13.6955
lowerback 6.27783 0.0612459 12.1461
upperback -2.36332 1.69561 5.62046
thorax -5.92986 0.591849 -1.04872
lowerneck 0.178686 -18.395 -18.8811
upperneck -20.7991 -22.2203 26.0301
head -0.69304 -11.246 10.1706
rclavicle -7.95139e-016 -2.22639e-014
rhumerus 82.2248 -55.051 -101.47
rradius 26.866
rwrist -41.0059
rhand 4.1913 -5.72394
rfingers 7.12502
rthumb 29.5983 -33.3832
lclavicle -7.95139e-016 -2.22639e-014
lhumerus -40.7699 19.5455 56.7837
lradius 47.7388
lwrist 15.959
lhand -26.8539 14.3208
lfingers 7.12502
lthumb -0.278993 44.3004
rfemur -13.3455 -3.48134 20.5817
rtibia 27.5765
rfoot -18.2921 -11.7556
rtoes 6.47857
lfemur -11.093 -1.2366 -6.43117
ltibia 25.7791
lfoot -3.05263 4.47456
ltoes -8.70747
522
root -0.369136 17.8995 -4.87264 -2.13025 86.0703 -9.65029
lowerback 6.3653 0.0602883 12.1274
upperback -2.25955 1.70363 5.71945
thorax -5.87115 0.605366 -0.936588
lowerneck -0.0350781 -18.361 -19.1082
upperneck -20.3163 -22.2364 25.9438
head -0.507319 -11.2268 10.1146
rclavicle 2.38542e-015 -4.45278e-014
rhumerus 77.1233 -55.4332 -98.266
rradius 28.5829
rwrist -45.954
rhand 4.78564 -7.06405
rfingers 7.12502
rthumb 30.1655 -34.6212
lclavicle 2.38542e-015 -4.45278e-014
lhumerus -40.931 19.1512 56.8031
lradius 48.3397
lwrist 16.8131
lhand -27.0375 14.5704
lfingers 7.12502
lthumb -0.456307 44.5496
rfemur -13.5046 -3.27075 20.4698
rtibia 27.5881
rfoot -18.1756 -11.6569
rtoes 6.29959
lfemur -10.9794 -1.08666 -6.57214
ltibia 25.7221
lfoot -2.80206 4.59959
ltoes -8.81569
523
root -0.371627 17.905 -4.86168 1.23953 85.4662 -6.35494
lowerback 6.44265 0.0628097 12.147
upperback -2.14364 1.71094 5.76999
thorax -5.79108 0.616329 -0.896396
lowerneck -0.25322 -18.3079 -19.2248
upperneck -19.8693 -22.2157 25.8071
head -0.359654 -11.1929 10.0409
rclavicle -1.05356e-014 -3.49861e-014
rhumerus 71.4445 -55.4896 -94.6054
rradius 30.6021
rwrist -51.7596
rhand 5.09657 -8.87514
rfingers 7.12502
rthumb 30.4621 -36.3777
lclavicle -1.05356e-014 -3.49861e-014
lhumerus -41.0729 18.7112 56.8539
lradius 48.9204
lwrist 17.6995
lhand -27.2457 14.856
lfingers 7.12502
lthumb -0.657365 44.8347
rfemur -13.7344 -3.08929 20.3392
rtibia 27.6538
rfoot -18.0713 -11.4871
rtoes 6.19764
lfemur -10.8711 -0.906668 -6.74181
ltibia 25.6663
lfoot -2.57042 4.77555
ltoes -8.90122
